<svg width="16" height="16" xmlns="http://www.w3.org/2000/svg">
<circle r="0.6" cx="4.6" cy="8.5" fill="#3f3f3f"/>
<circle r="0.6" cx="11.4" cy="8.5" fill="#3f3f3f"/>
<path fill="#3f3f3f" d="m6.0325195 0.67060545-1.8793945 0.68398435 0.1695313 1.6229493c-0.6300597 0.3613901-1.1943687 0.8133316-1.671875 1.3389648l-1.5120118-0.4325195-1 1.7320311 0.86123045 0.832715v4.5512695h3v1h2v-1h4v1h2v-1h3v-4.5512695l0.861231-0.832715-1-1.7320311-1.50713 0.4311523c-0.478373-0.5276547-1.044141-0.9812453-1.676074-1.34375l0.168848-1.6167969-1.8793945-0.68398435-0.9450195 1.39912105c-0.338527-0.046417-0.6802635-0.069726-1.022461-0.069726-0.3419105 0-0.683319 0.024328-1.0214845 0.071191zm-1.5325195 6.32939455a1.5 1.5 0 0 1 1.5 1.5 1.5 1.5 0 0 1-1.5 1.5 1.5 1.5 0 0 1-1.5-1.5 1.5 1.5 0 0 1 1.5-1.5zm7 0a1.5 1.5 0 0 1 1.5 1.5 1.5 1.5 0 0 1-1.5 1.5 1.5 1.5 0 0 1-1.5-1.5 1.5 1.5 0 0 1 1.5-1.5zm-3.5 0.5a0.5 0.5 0 0 1 0.5 0.5v1.5a0.5 0.5 0 0 1-0.5 0.5 0.5 0.5 0 0 1-0.5-0.5v-1.5a0.5 0.5 0 0 1 0.5-0.5zm-7 4.5c0 1.932997 3.1340067 3.5 7 3.5 3.865993 0 7-1.567003 7-3.5h-2v1h-4v-1h-2v1h-4v-1z"/>
</svg>
